<svg width="350" height="350" version="1.1" xmlns="http://www.w3.org/2000/svg">
  <path d="
        M 146.52990503872275 68.74815910820249
        A 110 110 0 0 1 203.47009496127728 68.74815910820249
        L 189.23504748063863 121.87407955410124
        A 55 55 0 0 0 160.76495251936137 121.87407955410124
        Z
        " stroke="black" stroke-width="1" fill="black"/>
  <path d="
        M 203.47009496127728 68.74815910820249
        A 110 110 0 0 1 252.7817459305202 97.21825406947976
        L 213.8908729652601 136.10912703473988
        A 55 55 0 0 0 189.23504748063863 121.87407955410124
        Z
        " stroke="black" stroke-width="1" fill="white"/>
  <path d="
        M 252.78174593052023 97.21825406947978
        A 110 110 0 0 1 281.25184089179754 146.52990503872272
        L 228.12592044589877 160.76495251936134
        A 55 55 0 0 0 213.89087296526012 136.10912703473988
        Z
        " stroke="black" stroke-width="1" fill="black"/>
  <path d="
        M 281.25184089179754 146.52990503872272
        A 110 110 0 0 1 281.25184089179754 203.47009496127728
        L 228.12592044589877 189.23504748063863
        A 55 55 0 0 0 228.12592044589877 160.76495251936137
        Z
        " stroke="black" stroke-width="1" fill="black"/>
  <path d="
        M 281.25184089179754 203.47009496127725
        A 110 110 0 0 1 252.78174593052023 252.7817459305202
        L 213.89087296526012 213.8908729652601
        A 55 55 0 0 0 228.12592044589877 189.23504748063863
        Z
        " stroke="black" stroke-width="1" fill="white"/>
  <path d="
        M 252.78174593052023 252.7817459305202
        A 110 110 0 0 1 203.47009496127734 281.2518408917975
        L 189.23504748063866 228.12592044589874
        A 55 55 0 0 0 213.89087296526012 213.8908729652601
        Z
        " stroke="black" stroke-width="1" fill="black"/>
  <path d="
        M 203.47009496127728 281.25184089179754
        A 110 110 0 0 1 146.52990503872275 281.25184089179754
        L 160.76495251936137 228.12592044589877
        A 55 55 0 0 0 189.23504748063863 228.12592044589877
        Z
        " stroke="black" stroke-width="1" fill="white"/>
  <path d="
        M 146.52990503872275 281.25184089179754
        A 110 110 0 0 1 97.21825406947978 252.78174593052023
        L 136.10912703473988 213.89087296526012
        A 55 55 0 0 0 160.76495251936137 228.12592044589877
        Z
        " stroke="black" stroke-width="1" fill="black"/>
  <path d="
        M 97.21825406947981 252.7817459305203
        A 110 110 0 0 1 68.7481591082025 203.4700949612773
        L 121.87407955410126 189.23504748063866
        A 55 55 0 0 0 136.1091270347399 213.89087296526014
        Z
        " stroke="black" stroke-width="1" fill="black"/>
  <path d="
        M 68.7481591082025 203.4700949612773
        A 110 110 0 0 1 68.74815910820249 146.52990503872272
        L 121.87407955410124 160.76495251936134
        A 55 55 0 0 0 121.87407955410126 189.23504748063866
        Z
        " stroke="black" stroke-width="1" fill="white"/>
  <path d="
        M 68.74815910820246 146.5299050387228
        A 110 110 0 0 1 97.21825406947973 97.21825406947981
        L 136.10912703473986 136.1091270347399
        A 55 55 0 0 0 121.87407955410123 160.7649525193614
        Z
        " stroke="black" stroke-width="1" fill="white"/>
  <path d="
        M 97.21825406947973 97.21825406947981
        A 110 110 0 0 1 146.52990503872263 68.74815910820251
        L 160.76495251936132 121.87407955410126
        A 55 55 0 0 0 136.10912703473986 136.1091270347399
        Z
        " stroke="black" stroke-width="1" fill="black"/>
  <path d="
        M 342.4173180120754 145.47980979662185
        A 170 170 0 0 1 342.4173180120754 204.52019020337815
        A 50 50 0 0 1 295.1043392264673 224.74884620746167
        L 295.1043392264673 125.25115379253833
        A 50 50 0 0 1 342.4173180120754 145.47980979662185
        " fill="black"/>
  <path d="
        M 7.582681987924644 204.52019020337815
        A 170 170 0 0 1 7.582681987924616 145.4798097966219
        A 50 50 0 0 1 54.89566077353271 125.25115379253833
        L 54.895660773532725 224.7488462074617
        A 50 50 0 0 1 7.582681987924644 204.52019020337815
        " fill="black"/>
  <path d="
    M 5.0 175.00000000000003
    A 170 170 0 0 1 345.0 175.0
    L 325.0 175.0
    A 150 150 0 0 0 25.0 175.00000000000003
    Z
    " fill="black"/>
</svg>